<?xml version="1.0" encoding="UTF-8" standalone="no"?>
<svg
   id="root"
   viewBox="0 0 64 64"
   version="1.1"
   xmlns:xlink="http://www.w3.org/1999/xlink"
   xmlns="http://www.w3.org/2000/svg"
   xmlns:svg="http://www.w3.org/2000/svg"><defs><linearGradient
       id="ShadowImpl"><stop
         style="stop-color:#1fa831;stop-opacity:0.80302995;"
         offset="0"
         id="stop1" /><stop
         style="stop-color:#2cb63d;stop-opacity:0.48627451;"
         offset="0.14420754"
         id="stop2" /><stop
         style="stop-color:#3fcb50;stop-opacity:0;"
         offset="0.44559315"
         id="stop3" /></linearGradient><linearGradient
       id="Linear"
       x1="0"
       y1="0"
       x2="1"
       y2="0"
       gradientUnits="userSpaceOnUse"
       gradientTransform="matrix(3.08228,-10.3064,8.72379,3.56577,19.8394,42.498)"><stop
         offset="0"
         style="stop-color:#ffffff;stop-opacity:1;"
         id="stop250" /><stop
         offset="0.52999997"
         style="stop-color:#f4f4f4;stop-opacity:1;"
         id="stop252" /><stop
         offset="1"
         style="stop-color:#d0d0d0;stop-opacity:1;"
         id="stop254" /></linearGradient><linearGradient
       id="Shadow"
       xlink:href="#ShadowImpl"
       x1="32"
       y1="32"
       x2="0"
       y2="101.7025"
       gradientUnits="userSpaceOnUse" /></defs><polygon
     points="55.122,55.569 55.122,55.569 64.000,46.691 64.000,17.003 64.000,14.582 64.000,8.431 57.849,8.431 55.624,8.431 8.878,8.431 0.000,17.309 0.000,46.997 0.000,49.418 0.000,55.569 6.151,55.569 8.376,55.569"
     id="base"
     style="fill:#41cd52" /><path
     id="shadowedBase"
     style="fill:url(#Shadow)"
     d="m 55.122,55.569 v 0 L 64,46.691 0,17.309 v 29.688 2.421 6.151 h 6.151 2.225 z" /><g
     id="g34"
     transform="matrix(0.79307594,0,0,0.79307594,17.724633,11.042968)"><path
       id="path28"
       style="fill:url(#Linear)"
       d="m 35.995,26.563 c 0,-0.548 -0.405,-0.864 -0.902,-0.707 L 0.902,36.698 C 0.404,36.856 0,37.429 0,37.976 v 11.081 c 0,0.548 0.404,0.865 0.902,0.707 L 35.093,38.923 c 0.497,-0.158 0.902,-0.731 0.902,-1.279 z" /><path
       id="path30"
       style="fill:#ffffff;fill-opacity:1"
       d="m 0,26.21 c 0,0.548 0.404,1.121 0.902,1.279 L 35.098,38.332 C 35.596,38.49 36,38.173 36,37.626 V 26.544 c 0,-0.547 -0.404,-1.12 -0.902,-1.278 L 0.902,14.423 C 0.404,14.265 0,14.581 0,15.129 Z" /><path
       id="path32"
       style="fill:#ffffff;fill-opacity:1"
       d="m 35.995,3.793 c 0,-0.548 -0.405,-0.865 -0.902,-0.707 L 0.902,13.927 C 0.404,14.085 0,14.658 0,15.206 v 11.081 c 0,0.548 0.404,0.864 0.902,0.707 L 35.093,16.152 c 0.497,-0.158 0.902,-0.731 0.902,-1.278 z" /></g></svg>
